<?xml version="1.0" standalone="no"?>
<!DOCTYPE svg PUBLIC "-//W3C//DTD SVG 20010904//EN"
 "http://www.w3.org/TR/2001/REC-SVG-20010904/DTD/svg10.dtd">
<svg version="1.0" xmlns="http://www.w3.org/2000/svg"
 width="982.000000pt" height="982.000000pt" viewBox="0 0 982.000000 982.000000"
 preserveAspectRatio="xMidYMid meet">
<metadata>
Created by potrace 1.14, written by Peter Selinger 2001-2017
</metadata>
<g transform="translate(0.000000,982.000000) scale(0.100000,-0.100000)"
fill="#000000" stroke="none">
<path d="M9515 9274 c-61 -17 -192 -37 -384 -59 -377 -42 -529 -121 -624 -324
-46 -98 -71 -212 -87 -401 -16 -193 -15 -190 -66 -242 -37 -39 -53 -48 -81
-48 -23 0 -36 5 -40 18 -11 31 -54 62 -79 56 -16 -4 -25 0 -33 15 -23 41 -86
57 -148 37 -15 -5 -28 0 -46 17 -47 48 -74 56 -128 39 l-48 -15 -83 50 c-112
68 -148 86 -248 119 -72 24 -100 28 -180 27 -184 -3 -329 -80 -475 -254 -28
-33 -35 -36 -88 -38 -116 -2 -216 -41 -295 -113 -45 -41 -97 -68 -131 -68 -28
0 -198 -58 -246 -83 -22 -12 -68 -41 -103 -64 -35 -24 -65 -43 -68 -43 -3 0
-15 -10 -27 -22 -57 -59 -154 -84 -231 -60 -28 8 -56 16 -63 18 -25 5 -43 22
-88 82 -39 54 -57 69 -112 94 -37 16 -83 43 -104 60 -48 39 -110 53 -147 34
-40 -21 -72 -59 -86 -103 -10 -29 -23 -43 -54 -58 -55 -27 -80 -52 -87 -85 -7
-30 8 -67 32 -85 12 -9 12 -16 2 -38 -16 -34 4 -100 38 -127 16 -12 23 -28 23
-51 0 -43 32 -97 65 -109 18 -7 25 -17 25 -35 0 -14 6 -26 13 -26 6 -1 -64 -7
-158 -14 -473 -36 -856 -160 -1198 -389 -259 -173 -450 -354 -615 -583 -36
-50 -54 -65 -90 -77 -24 -9 -48 -13 -52 -11 -4 3 -26 -2 -49 -9 -22 -8 -48
-15 -58 -15 -10 1 -63 -7 -118 -16 -111 -19 -127 -21 -205 -29 -30 -4 -68 -9
-85 -13 -31 -6 -38 -7 -220 -18 -192 -11 -490 -6 -625 11 -25 3 -54 6 -65 6
-11 0 -36 4 -55 9 -19 4 -57 11 -85 14 -27 4 -60 9 -72 11 -51 10 -70 13 -100
18 -18 2 -36 7 -41 10 -5 3 -19 7 -33 9 -13 3 -44 11 -69 18 -25 7 -49 14 -55
14 -5 1 -21 7 -33 14 -13 7 -26 10 -29 7 -3 -3 -24 5 -47 17 -22 12 -48 22
-56 23 -22 2 -283 132 -291 145 -4 7 -12 8 -18 5 -6 -4 -14 0 -17 8 -3 9 -10
16 -16 16 -5 0 -23 13 -41 30 -18 16 -36 30 -40 30 -5 0 -22 13 -37 30 -28 30
-50 39 -50 20 0 -5 -19 -49 -41 -97 -23 -49 -42 -95 -43 -103 -1 -8 -8 -26
-15 -40 -13 -22 -20 -48 -36 -130 -3 -14 -7 -65 -9 -114 -4 -80 -1 -98 26
-175 29 -81 65 -131 94 -131 7 0 14 -7 18 -15 3 -8 12 -15 20 -15 7 0 16 -7
19 -15 7 -16 118 -75 142 -75 9 0 27 -7 41 -16 13 -9 32 -18 42 -18 9 -1 35
-7 57 -14 44 -12 85 -21 128 -28 16 -2 33 -6 38 -10 11 -6 48 -12 134 -20 33
-3 74 -7 90 -9 17 -3 71 -7 120 -10 135 -8 121 -1 189 -95 17 -22 33 -40 38
-40 4 0 8 -7 8 -15 0 -8 5 -15 12 -15 6 0 8 -3 5 -7 -4 -3 1 -18 10 -32 45
-68 104 -187 101 -205 -1 -10 3 -44 18 -136 4 -28 -18 -165 -40 -248 -26 -98
-17 -264 21 -352 3 -8 8 -23 10 -34 3 -16 19 -40 88 -126 33 -42 127 -128 154
-142 14 -7 28 -16 31 -20 7 -9 108 -78 115 -78 3 0 13 -8 23 -18 25 -22 85
-56 96 -53 5 1 21 -10 37 -25 15 -14 32 -24 37 -20 5 3 20 -6 32 -19 13 -14
31 -25 39 -25 9 0 22 -9 29 -20 7 -11 19 -20 27 -20 8 0 15 -4 15 -8 0 -5 18
-16 40 -26 23 -10 51 -28 64 -39 39 -38 76 -67 85 -67 4 0 16 -9 26 -20 10
-11 22 -20 27 -20 4 0 16 -8 27 -18 58 -54 90 -82 96 -82 8 0 182 -175 244
-245 24 -28 47 -59 51 -70 5 -11 27 -44 49 -74 23 -30 41 -59 41 -64 0 -7 55
-92 70 -107 12 -12 30 -51 30 -64 0 -8 3 -16 8 -18 10 -4 64 -87 78 -119 13
-28 30 -50 81 -107 18 -19 33 -39 33 -44 0 -6 51 -60 113 -122 136 -134 172
-166 186 -166 6 0 11 -4 11 -9 0 -5 8 -11 17 -15 23 -7 55 -28 68 -43 5 -7 27
-19 47 -28 21 -8 38 -20 38 -25 0 -20 -141 -157 -182 -178 -39 -18 -119 -28
-278 -34 -40 -1 -171 -28 -203 -41 -19 -9 -41 -26 -48 -39 -15 -28 -17 -128
-5 -348 9 -180 10 -175 -63 -370 -11 -30 -43 -149 -71 -264 -51 -206 -52 -211
-41 -284 19 -124 70 -212 125 -212 40 0 57 31 208 370 101 228 181 357 260
417 79 61 128 111 233 238 28 33 53 62 56 65 3 3 33 37 67 76 33 39 85 89 114
110 29 21 62 47 73 57 11 10 39 30 62 44 24 14 43 29 43 34 0 5 6 9 13 9 7 0
23 9 35 20 12 11 26 20 32 20 5 0 10 5 10 10 0 6 7 10 15 10 8 0 15 3 15 8 0
4 9 13 20 19 15 10 22 10 32 0 7 -6 25 -18 39 -25 15 -8 38 -25 52 -38 14 -13
29 -24 33 -24 7 0 64 -59 64 -66 0 -3 9 -15 21 -27 36 -38 99 -139 99 -157 0
-10 7 -20 15 -24 8 -3 15 -11 15 -18 0 -7 16 -55 35 -106 19 -52 34 -103 33
-115 -1 -12 3 -38 10 -57 6 -19 14 -60 18 -90 8 -64 20 -100 33 -100 11 0 75
61 120 115 18 22 57 67 86 100 29 33 97 112 150 175 54 63 109 125 122 138 12
13 23 26 23 30 0 4 15 23 33 42 17 19 49 56 70 82 21 26 43 53 50 60 16 17
270 331 310 383 4 5 17 21 28 35 11 14 30 38 42 53 12 16 27 34 32 40 16 18
167 208 195 246 14 18 30 38 35 44 6 7 22 30 38 53 15 22 35 49 45 60 10 10
41 49 69 87 32 42 80 88 130 124 261 190 433 364 604 612 139 200 253 441 316
663 l27 98 115 35 c64 20 154 47 201 61 47 15 113 39 148 55 35 16 68 29 73
29 16 0 142 70 166 92 55 51 100 237 89 367 -8 103 -61 191 -143 242 l-32 20
24 37 c13 20 32 52 41 70 9 17 20 32 25 32 5 0 9 9 9 20 0 11 4 20 10 20 5 0
12 11 16 25 3 14 9 25 13 25 10 0 61 79 61 94 0 7 8 20 18 30 18 15 24 12 118
-60 54 -42 109 -80 121 -84 11 -5 24 -13 27 -19 4 -5 19 -16 34 -24 40 -20
103 -57 132 -76 14 -9 41 -24 60 -34 60 -30 93 -56 320 -251 158 -137 242
-196 278 -196 41 0 93 21 157 65 33 23 82 52 108 66 70 35 156 105 163 133 7
30 -33 121 -74 165 -8 8 -11 25 -8 40 35 153 35 155 19 174 -33 35 -164 115
-201 122 -21 3 -62 0 -97 -9 -121 -30 -195 -54 -210 -66 -31 -25 -122 83 -202
239 -45 87 -116 186 -198 276 l-45 49 37 11 c145 43 317 203 389 360 22 47 31
56 91 85 149 73 275 249 291 406 11 104 0 168 -39 223 -52 73 -116 143 -171
186 -42 34 -51 47 -53 77 -1 20 -10 46 -21 59 -18 23 -33 28 -81 31 -12 0 -25
9 -28 19 -7 21 -64 42 -88 33 -22 -8 -23 19 -1 37 13 10 166 188 168 196 1 1
62 4 136 8 74 3 138 10 143 14 4 4 25 99 47 212 22 112 47 240 56 284 8 44 27
105 41 135 31 67 31 95 -2 217 -14 52 -25 99 -25 103 0 5 10 12 23 15 67 21
119 91 133 180 l7 50 -34 -37 c-33 -35 -112 -69 -126 -54 -4 3 8 21 26 40 18
18 37 51 42 72 11 48 12 134 2 133 -5 -1 -30 -8 -58 -15z m-3765 -1916 c0 -5
-5 -8 -12 -8 -6 0 -39 -14 -73 -30 l-62 -30 -106 25 c-59 14 -117 26 -129 26
-13 1 4 7 37 14 64 14 345 16 345 3z m-226 -1036 l536 -533 -192 -194 c-105
-107 -197 -195 -204 -195 -7 0 -164 154 -349 343 l-337 342 -337 -343 c-185
-188 -341 -343 -347 -342 -6 0 -97 88 -203 195 l-193 196 539 534 c296 294
541 533 545 532 3 -1 247 -242 542 -535z m-1704 -1407 c-107 -107 -199 -195
-205 -195 -6 0 -98 88 -205 195 l-195 195 200 200 200 200 200 -200 200 -200
-195 -195z m1365 395 l200 -200 -203 -203 -202 -202 -202 202 -203 203 200
200 c110 110 202 200 205 200 3 0 95 -90 205 -200z m1365 -395 c-107 -107
-199 -195 -205 -195 -6 0 -98 88 -205 195 l-195 195 200 200 200 200 200 -200
200 -200 -195 -195z m-1227 -427 l342 342 198 -198 197 -197 -535 -535 c-294
-294 -539 -535 -544 -535 -5 0 -251 240 -546 534 l-537 534 199 199 198 198
342 -342 343 -343 343 343z"/>
</g>
</svg>
